name D:\school\WTK\thesis\model\3dpredictsim\Results\PredSim_adaptations\Pog_s1_tmt_bCst_d00_k200_ig24_act.mot
datacolumns 128
datarows 4
range 1.88312387 1.92078634
endheader
time	pelvis_tilt	pelvis_list	pelvis_rotation	pelvis_tx	pelvis_ty	pelvis_tz	hip_flexion_l	hip_adduction_l	hip_rotation_l	hip_flexion_r	hip_adduction_r	hip_rotation_r	knee_angle_l	knee_angle_r	ankle_angle_l	ankle_angle_r	subtalar_angle_l	subtalar_angle_r	tmt_angle_l	tmt_angle_r	mtp_angle_l	mtp_angle_r	lumbar_extension	lumbar_bending	lumbar_rotation	arm_flex_l	arm_add_l	arm_rot_l	arm_flex_r	arm_add_r	arm_rot_r	elbow_flex_l	elbow_flex_r	pro_sup_l	pro_sup_r	glut_med1_l/activation	glut_med2_l/activation	glut_med3_l/activation	glut_min1_l/activation	glut_min2_l/activation	glut_min3_l/activation	semimem_l/activation	semiten_l/activation	bifemlh_l/activation	bifemsh_l/activation	sar_l/activation	add_long_l/activation	add_brev_l/activation	add_mag1_l/activation	add_mag2_l/activation	add_mag3_l/activation	tfl_l/activation	pect_l/activation	grac_l/activation	glut_max1_l/activation	glut_max2_l/activation	glut_max3_l/activation	iliacus_l/activation	psoas_l/activation	quad_fem_l/activation	gem_l/activation	peri_l/activation	rect_fem_l/activation	vas_med_l/activation	vas_int_l/activation	vas_lat_l/activation	med_gas_l/activation	lat_gas_l/activation	soleus_l/activation	tib_post_l/activation	flex_dig_l/activation	flex_hal_l/activation	tib_ant_l/activation	per_brev_l/activation	per_long_l/activation	per_tert_l/activation	ext_dig_l/activation	ext_hal_l/activation	ercspn_l/activation	intobl_l/activation	extobl_l/activation	glut_med1_r/activation	glut_med2_r/activation	glut_med3_r/activation	glut_min1_r/activation	glut_min2_r/activation	glut_min3_r/activation	semimem_r/activation	semiten_r/activation	bifemlh_r/activation	bifemsh_r/activation	sar_r/activation	add_long_r/activation	add_brev_r/activation	add_mag1_r/activation	add_mag2_r/activation	add_mag3_r/activation	tfl_r/activation	pect_r/activation	grac_r/activation	glut_max1_r/activation	glut_max2_r/activation	glut_max3_r/activation	iliacus_r/activation	psoas_r/activation	quad_fem_r/activation	gem_r/activation	peri_r/activation	rect_fem_r/activation	vas_med_r/activation	vas_int_r/activation	vas_lat_r/activation	med_gas_r/activation	lat_gas_r/activation	soleus_r/activation	tib_post_r/activation	flex_dig_r/activation	flex_hal_r/activation	tib_ant_r/activation	per_brev_r/activation	per_long_r/activation	per_tert_r/activation	ext_dig_r/activation	ext_hal_r/activation	ercspn_r/activation	intobl_r/activation	extobl_r/activation	
          1.88312387	         -2.92980639	          1.00686106	         -9.26104367	          2.35390483	          0.86338412	          0.00284425	         30.44117871	          0.52145536	         -1.79004990	        -13.49607095	         -2.40958933	          6.62958578	        -13.92772485	        -21.65170996	          9.62123690	        -23.56803122	          2.91037237	         16.12512393	          0.04596690	          3.87261265	         -0.05942751	         35.34870468	          0.87694182	          1.42026893	          2.82708262	        -13.82623830	        -13.49078922	          9.76888250	          2.40730213	        -13.53236081	         16.83371248	         18.10371510	         44.93255692	         86.51662706	         86.51662706	          0.05000008	          0.05000012	          0.05000050	          0.05000010	          0.05000012	          0.05000018	          0.18307620	          0.10712507	          0.17813788	          0.10690835	          0.05275981	          0.10690926	          0.26002020	          0.37181893	          0.23158776	          0.11520329	          0.05000021	          0.08839878	          0.16893625	          0.06046123	          0.06046216	          0.19040435	          0.05000070	          0.07311288	          0.54151577	          0.25629372	          0.22218941	          0.07311625	          0.19744181	          0.21741645	          0.17848277	          0.05000053	          0.07311249	          0.05000003	          0.06046215	          0.07311191	          0.06983486	          0.57502869	          0.21849889	          0.15826414	          0.43737751	          0.53354116	          0.36925669	          0.05000001	          0.10584467	          0.09043330	          0.08034374	          0.05000084	          0.06793624	          0.09780840	          0.08036453	          0.07311178	          0.05814659	          0.07311165	          0.07311293	          0.05070439	          0.06046489	          0.26667241	          0.21580259	          0.25516321	          0.07314670	          0.07317312	          0.15775362	          0.05000226	          0.05002546	          0.05000230	          0.05000188	          0.05000797	          0.35461994	          0.48643095	          0.21453261	          0.07312018	          0.09651914	          0.30634581	          0.10478532	          0.10838660	          0.10195857	          0.09288386	          0.15496359	          0.05000001	          0.10476543	          0.12980843	          0.13398674	          0.27634027	          0.48880315	          0.37405553	          0.66146506	          0.66239073	          0.17092438	          0.05000006	          0.08841036	          0.08841054	
          1.89567803	         -2.92825960	          0.92860289	         -9.42181127	          2.37421026	          0.86110929	          0.00261234	         29.68290852	          0.80965185	         -1.49765408	        -13.36396940	         -2.61761575	          6.19179695	        -14.80010976	        -23.27542010	          8.98892782	        -26.19402658	          2.44220469	         16.27374662	         -0.11964500	          2.87559442	         -0.15683243	         35.31591652	          1.12362907	          1.29348234	          2.91929354	        -15.26501651	        -13.48886348	          9.95190844	          2.01910625	        -13.59962244	         17.10282820	         18.07922657	         45.87063980	         86.51662706	         86.51662706	          0.28258033	          0.23655984	          0.30798682	          0.05000119	          0.05000061	          0.35833104	          0.15845391	          0.13551244	          0.15576123	          0.08841033	          0.05000157	          0.08841071	          0.21502875	          0.30748265	          0.22463371	          0.16509527	          0.05000035	          0.07311242	          0.15049885	          0.05000012	          0.05000035	          0.18622608	          0.06046181	          0.06046209	          0.44781649	          0.21194689	          0.28238212	          0.06046484	          0.16327817	          0.17979657	          0.14759964	          0.06011289	          0.06046180	          0.06046177	          0.05000048	          0.06046177	          0.06046186	          0.53204800	          0.33366998	          0.17689019	          0.53232625	          0.60056532	          0.53862778	          0.05000003	          0.12683702	          0.07478549	          0.06644185	          0.06046282	          0.06046207	          0.08088454	          0.06645913	          0.06046358	          0.05002705	          0.06046177	          0.06046240	          0.05000019	          0.05000279	          0.22052978	          0.21125124	          0.21101210	          0.06049147	          0.06051219	          0.17924676	          0.06428164	          0.06046523	          0.06046279	          0.06046262	          0.06046234	          0.29325957	          0.48432546	          0.17741188	          0.06046860	          0.07981834	          0.25333837	          0.10691027	          0.12926984	          0.10129802	          0.07681209	          0.12815005	          0.06046367	          0.08663771	          0.10734750	          0.11080282	          0.26991693	          0.50730027	          0.34820976	          0.81570723	          0.81621143	          0.42641956	          0.07551597	          0.07311258	          0.07311276	
          1.90823218	         -2.92308364	          0.86626087	         -9.53608689	          2.39440248	          0.85850538	          0.00237817	         28.83275762	          1.04708959	         -1.18808688	        -13.01651006	         -2.82716637	          5.74416744	        -15.63699373	        -25.30457512	          8.38136127	        -28.23910287	          1.94867456	         16.29206243	         -0.02160793	          2.02461298	         -0.17957878	         33.31357128	          1.34920976	          1.13602692	          2.99598076	        -16.59869827	        -13.50384148	         10.27537458	          1.61960633	        -13.67049023	         17.30975828	         17.95107972	         46.76058708	         86.51662706	         86.51662706	          0.37831035	          0.43165089	          0.49102480	          0.27303613	          0.33043203	          0.33427101	          0.13103639	          0.11206464	          0.12880964	          0.07311285	          0.05000107	          0.07311290	          0.17782202	          0.25427859	          0.22164183	          0.18976234	          0.05000026	          0.06046193	          0.12445802	          0.28838693	          0.22173324	          0.22479945	          0.05000012	          0.05000029	          0.37033017	          0.17527351	          0.23352175	          0.05000253	          0.13502606	          0.20229825	          0.12206064	          0.05000001	          0.05000004	          0.05000000	          0.05000000	          0.05000017	          0.05000015	          0.69059225	          0.33107107	          0.16860495	          0.74540654	          0.63962749	          0.44542852	          0.07180069	          0.10489037	          0.06184525	          0.09645125	          0.05000096	          0.05000026	          0.17696166	          0.08775211	          0.05000213	          0.05000145	          0.05000019	          0.05000060	          0.05000037	          0.06046240	          0.19108379	          0.17469821	          0.17450046	          0.05002472	          0.05004176	          0.16084291	          0.06046368	          0.05000301	          0.05000150	          0.05000098	          0.05000054	          0.25226922	          0.45592152	          0.14671407	          0.05000582	          0.06600752	          0.28676142	          0.08841175	          0.10690924	          0.10576851	          0.06352119	          0.10597607	          0.05000155	          0.07164666	          0.08877304	          0.09163046	          0.27625144	          0.45274799	          0.31596564	          0.86329603	          0.89994869	          0.35263555	          0.10177909	          0.06046180	          0.06046196	
          1.92078634	         -2.91473939	          0.80866606	         -9.59608273	          2.41422257	          0.85597520	          0.00208423	         28.12492051	          1.29050013	         -0.91518475	        -12.46195333	         -3.03938268	          5.31222666	        -16.64584207	        -27.63255904	          7.61446838	        -29.69070880	          1.44316008	         16.24124917	         -0.18971370	          1.08877285	         -0.23219789	         29.36895327	          1.53750744	          0.96246826	          3.05772626	        -17.75242949	        -13.51483568	         10.72416455	          1.26765801	        -13.73123802	         17.48283598	         17.67354372	         47.49325822	         86.51662706	         86.51662706	          0.46520393	          0.56275623	          0.63365568	          0.31952235	          0.46149880	          0.48947139	          0.10836298	          0.09267404	          0.10652153	          0.06046206	          0.05000039	          0.06046210	          0.14705325	          0.21028054	          0.18329327	          0.18928534	          0.05000044	          0.05000147	          0.10292301	          0.35999596	          0.27713986	          0.23640520	          0.05000007	          0.05000007	          0.30625143	          0.14494580	          0.25161137	          0.05000004	          0.33606439	          0.36259414	          0.29093319	          0.05000002	          0.05000006	          0.05000000	          0.12742653	          0.06457433	          0.05000260	          0.83146194	          0.27378535	          0.13943099	          0.61642778	          0.63330642	          0.56617508	          0.08281313	          0.08674104	          0.05114408	          0.07976220	          0.05000263	          0.07314827	          0.14634180	          0.07256844	          0.05000982	          0.05062422	          0.05000005	          0.05000013	          0.05000002	          0.05000066	          0.21092767	          0.18946697	          0.23823776	          0.12542528	          0.08840995	          0.13301246	          0.05000291	          0.05000015	          0.05018317	          0.07311201	          0.09963479	          0.20861874	          0.40989241	          0.13804828	          0.06045364	          0.05895604	          0.23714266	          0.07311390	          0.08841076	          0.08746730	          0.05253007	          0.08763891	          0.05000010	          0.05924955	          0.07341258	          0.07577555	          0.30764573	          0.37440835	          0.26129364	          0.71391862	          0.81784226	          0.64758575	          0.12598283	          0.05000002	          0.05000016	
